<svg xmlns="http://www.w3.org/2000/svg" width="123" height="11">
    <path fill="#EEE4B1" fill-rule="evenodd" d="M123.01 5.998H15.961c-2.986.011-5.993 3.122-7.934 5.008l-.021-.022c.247-1.034.95-2.838 2.831-4.815-2.6.676-5.113 3.188-6.81 4.837l-.021-.022c.247-1.034.95-2.838 2.83-4.815-2.622.678-5.11 3.186-6.809 4.837l-.021-.022C.26 9.92.993 8.041 3 5.997c-.169-.172.152-.809 0-1.001C1.344 2.893.181 1.068.006.015l.021-.023c1.712 1.684 4.176 4.195 6.85 4.847C5.287 2.803 4.176 1.042 4.006.015l.021-.023c1.71 1.683 4.251 4.27 6.872 4.875C9.297 2.819 8.177 1.047 8.006.015l.021-.023c1.885 1.855 4.749 4.778 7.674 4.992H123.01v1.014z" opacity=".341"/>
</svg>
