<svg xmlns="http://www.w3.org/2000/svg" width="34" height="34"><path fill="none" d="M0 0h34v34H0V0z"/><path fill-rule="evenodd" opacity=".541" fill="#D0C99C" d="M22.173 17.973c-.557-.602-1.3-1-2.228-1.196v-.08a3.223 3.223 0 0 0 1.518-1.259c.366-.571.549-1.224.549-1.956 0-.633-.133-1.19-.398-1.674-.266-.484-.667-.869-1.205-1.159a4.809 4.809 0 0 0-1.598-.529c-.568-.085-1.403-.126-2.505-.126h-5.302v15.009h6.008c1.042 0 1.9-.093 2.576-.281a5.267 5.267 0 0 0 1.859-.949 4.011 4.011 0 0 0 1.14-1.4c.282-.564.423-1.221.423-1.966 0-1.022-.279-1.832-.837-2.434zm-4.163-2.867c-.114.248-.323.443-.625.583a2.203 2.203 0 0 1-.801.212c-.259.014-.711.02-1.356.02h-.474v-3.175h.262c.672 0 1.178.004 1.517.015.339.01.634.069.882.177.262.113.455.299.58.553.124.256.186.505.186.746 0 .33-.057.619-.171.869zm.882 6.203c-.158.285-.408.502-.751.65-.39.167-.773.26-1.149.273-.377.012-1.055.02-2.036.02h-.202v-3.759h.695c.673 0 1.208.004 1.608.015.4.009.714.057.943.146.376.134.659.332.847.595.188.261.282.623.282 1.088 0 .362-.079.686-.237.972z"/></svg>