<svg xmlns="http://www.w3.org/2000/svg" viewBox="0 0 34 34"><defs><style>.cls-1{fill:#efb604}</style></defs><title>icn-beer</title><g id="Слой_2" data-name="Слой 2"><g id="Слой_1-2" data-name="Слой 1"><path id="Shape" class="cls-1" d="M33 14.86a1 1 0 0 1-1-1.06V5h-2a2.39 2.39 0 0 1-2.36 1.18 3.08 3.08 0 0 1-2.15-.73 2.05 2.05 0 0 1-2.1 1.83A2.39 2.39 0 0 1 21.26 5H20v4a.94.94 0 0 1-1 1 1 1 0 0 1-1-1V5c0 .34-.61 1-1 1-.78 0-1-1.12-1-2h-2c0 1-.41 2-1 2s-1 0-1-1h-1v1a1 1 0 0 1-2 0v-.69a1.93 1.93 0 0 1 1-1.93 1.8 1.8 0 0 1 1.69-1.25 2.11 2.11 0 0 1 1.15.34A3.16 3.16 0 0 1 18.4 1.2 2.09 2.09 0 0 1 21.24 3a3.14 3.14 0 0 1 3.33-.61 3.16 3.16 0 0 1 5.84-.7A2.12 2.12 0 0 1 34 3.19V13.8a1 1 0 0 1-1 1.06zM14 28V11a1 1 0 1 1 2 0v17a1 1 0 1 1-2 0zm6 0V13a1 1 0 0 1 2 0v15a1 1 0 1 1-2 0zm6 0V11a1 1 0 1 1 2 0v17a1 1 0 1 1-2 0zM11 8v23.88l.12.12h19.7a.19.19 0 0 0 .18-.19V15c.65.78 1.33 1.19 2 1v15.82A2.19 2.19 0 0 1 30.82 34h-19.7A2.13 2.13 0 0 1 9 31.88V26a9.17 9.17 0 0 1-9-9v-6a1.92 1.92 0 0 1 2-2h7a2 2 0 0 0 2-1zm-9 9c0 2.93 3.24 7 7 7V11H2v6z"/></g></g></svg>