<svg xmlns="http://www.w3.org/2000/svg" width="74" height="11"><path fill-rule="evenodd" opacity=".341" fill="#EEE4B1" d="M74.01 6H15.946c-2.981.022-5.982 3.123-7.919 5.007l-.021-.021c.247-1.034.956-2.84 2.837-4.817-2.603.674-5.118 3.186-6.816 4.838l-.021-.021c.247-1.034.956-2.839 2.836-4.817-2.625.677-5.115 3.184-6.815 4.838l-.021-.021C.26 9.922.993 8.042 3 5.997c-.169-.171.152-.807 0-1C1.343 2.895.18 1.07.006.015l.021-.02c1.712 1.684 4.176 4.192 6.851 4.844C5.288 2.804 4.176 1.043 4.006.015l.021-.02c1.71 1.682 4.251 4.267 6.872 4.871C9.298 2.82 8.177 1.048 8.006.015l.021-.02c1.91 1.879 4.825 4.847 7.79 4.989H74.01V6z"/></svg>