<svg xmlns="http://www.w3.org/2000/svg" width="34" height="34"><path fill="none" d="M0 0h34v34H0V0z"/><path fill-rule="evenodd" opacity=".541" fill="#D0C99C" d="M24.333 6.995h-15C8.066 6.995 7 8.061 7 9.329v15.333c0 1.268 1.066 2.334 2.333 2.334h15.333C25.933 26.93 27 25.93 27 24.662V9.329c0-1.268-1.4-2.267-2.667-2.334zM17 12.996c2 0 4 1.999 4 4 0 2-2 3.999-4 3.999s-4-1.999-4-3.999c0-2.001 2-4 4-4zm7.989 10.656c0 .733-.613 1.334-1.362 1.334H10.372c-.749 0-1.361-.601-1.361-1.334v-8.668l1.989.011c-.2.534 0 1.402 0 2.001a5.975 5.975 0 0 0 6 5.999c3.333 0 6-2.666 6-5.999 0-.599.2-1.467 0-2.001l1.989-.011v8.668zm.001-14.05v2.795a.6.6 0 0 1-.598.599h-2.794a.6.6 0 0 1-.598-.599V9.602c0-.359.239-.596.598-.596h2.794c.359 0 .598.298.598.596z"/></svg>