<svg xmlns="http://www.w3.org/2000/svg" viewBox="0 0 34 34.01"><defs><style>.cls-1{fill:#eee3b0}</style></defs><title>icn-drinks</title><g id="Слой_2" data-name="Слой 2"><g id="Слой_1-2" data-name="Слой 1"><path id="Shape" class="cls-1" d="M26.11 31H14.2l-1.38-2a12.32 12.32 0 0 1-3.89-3.18 7.23 7.23 0 0 1-1.48.18A7.75 7.75 0 0 1 0 18.22 3.19 3.19 0 0 1 3.19 15H34v2c0 5.33-2.34 9.73-6.77 12zM6 17H3a1.14 1.14 0 0 0-1 1.19C2 21.16 4.51 24 7.45 24h.24A14.53 14.53 0 0 1 6 17zm2 0c0 4.72 2.17 8.35 5.77 10.23l.74.29.86 1.48h9.25l.86-1.46.74-.29C29.83 25.38 32 21.75 32 17zm17.83-7a5.24 5.24 0 0 0 .71-2.6 6.82 6.82 0 0 0-1.21-3.19 6 6 0 0 1-.91-3.19 1.06 1.06 0 0 1 2.13 0 6.73 6.73 0 0 0 1.06 3.19 6.49 6.49 0 0 1 1.06 3.19 6.9 6.9 0 0 1-1.16 3.5c-.48.78-1.23.95-1.71.45s-.42-.72.03-1.35zm-6.41 1.4c-.42-.4-.42-.77.03-1.4a5.24 5.24 0 0 0 .71-2.6 6.82 6.82 0 0 0-1.21-3.19A6 6 0 0 1 18 1.06a1.06 1.06 0 0 1 2.13 0 6.73 6.73 0 0 0 1.06 3.19 6.49 6.49 0 0 1 1.06 3.19 6.9 6.9 0 0 1-1.16 3.5c-.48.78-1.23.95-1.71.45zm-6.42 0c-.41-.42-.42-.77 0-1.36a5.24 5.24 0 0 0 .71-2.6 6.82 6.82 0 0 0-1.21-3.19 6 6 0 0 1-.91-3.19 1.06 1.06 0 1 1 2.13 0 6.73 6.73 0 0 0 1.07 3.19 6.49 6.49 0 0 1 1.11 3.19 6.9 6.9 0 0 1-1.16 3.5c-.48.78-1.23.95-1.71.45zM31.87 34H8.45a2.14 2.14 0 0 1-2.13-2H34a2.14 2.14 0 0 1-2.13 2z"/></g></g></svg>