<svg xmlns="http://www.w3.org/2000/svg" width="212" height="11"><path fill-rule="evenodd" opacity=".341" fill="#EEE4B1" d="M209 5.996c2.007 2.047 2.74 3.925 2.994 4.989l-.021.021c-1.699-1.652-4.187-4.158-6.809-4.837 1.88 1.979 2.583 3.782 2.83 4.816l-.021.021c-1.697-1.649-4.21-4.161-6.81-4.837 1.881 1.978 2.584 3.782 2.831 4.816l-.021.021c-1.941-1.886-4.949-4.997-7.934-5.009H15.005v.076l-2.323-.076h-.692v-.022l-4.567-.149 3.283 5.157-.018.019L.004 5.504v-.038L10.688.006l.018.018-3.247 5.157 4.531-.17v-.028h.743l2.272-.085v.085h181.304c2.922-.219 5.781-3.137 7.664-4.989l.021.023c-.171 1.029-1.291 2.801-2.893 4.85 2.621-.604 5.162-3.191 6.872-4.873l.021.023c-.17 1.024-1.281 2.785-2.871 4.822 2.674-.652 5.138-3.161 6.85-4.845l.021.023c-.175 1.051-1.338 2.876-2.994 4.98-.152.192.169.829 0 .999zM1.51 5.504l7.31 3.774-2.522-3.774H1.51z"/></svg>