<svg xmlns="http://www.w3.org/2000/svg" viewBox="0 0 34 34"><defs><style>.cls-1{fill:#eee3b0}</style></defs><title>icn-burger</title><g id="Слой_2" data-name="Слой 2"><g id="Слой_1-2" data-name="Слой 1"><path id="Shape" class="cls-1" d="M31.5 27h-20a2.5 2.5 0 0 1 0-5h20a2.5 2.5 0 0 1 0 5zm0-3h-20a.5.5 0 1 0 0 1h20a.5.5 0 1 0 0-1zM10 20c0-5.12 4.35-8 11.4-8S33 14.88 33 20v1H10v-1zm20.91-1c-.65-4-5.22-5-9.52-5s-8.66 1-9.32 5zm-13-7.68c-.46.2-1.22.46-1.85.67V10h.93a1.17 1.17 0 0 0 .01-.32V9h-1.56l-1.06-1h-9.8L3.52 9H2v.68c0 .06.06.32.09.32H3v1.95l.05 1H13a4.7 4.7 0 0 0-2.16 2H3.28l.3 6H10a3.12 3.12 0 0 0-2 2H3.67l.44 8.89c0 .06 0 .11.06.11H9c.37 1.22.65 2 1.93 2H4.18a2.09 2.09 0 0 1-2.06-2l-1-20.42A2.2 2.2 0 0 1 0 9.68V8.62C0 7.88.36 7 2.06 7h.66l1.06-1h11.4l1.06 1h.66c1.74 0 2.1.88 2.1 1.62v1.06a1.78 1.78 0 0 1-1.13 1.63zM14 3.46V5h-2V2.9A2.9 2.9 0 0 1 14.9 0H18v2h-2.54A1.46 1.46 0 0 0 14 3.46zm-4 27.39V28h23v2.88A3.24 3.24 0 0 1 29.74 34h-17A2.84 2.84 0 0 1 10 30.85zm2 0c0 .42.1 1.12.78 1.12h17A1.26 1.26 0 0 0 31 30.85V30H12z"/></g></g></svg>