<svg xmlns="http://www.w3.org/2000/svg" width="79" height="103"><path fill-rule="evenodd" fill="#EFB504" d="M78.522 24.327c1.392-2.159-.391-5-3.412-5.262-3.177-.275-6.408-.413-9.575-.138-2.01.175-3.063-.515-3.94-2.087-1.924-3.448-3.887-6.873-5.812-10.319C53.572 2.559 50.371.62 45.736 1.047c-4.394.404-8.501 1.185-12.513 3.443-2.919 1.643-6.657 1.785-10.008 2.679-2.013.537-6.408 1.967-5.689 2.884.72.916 22.753-3.461 23.562-2.547.808.913-1.668 1.34-3.053 1.78-1.385.441-7.218 1.87-11.691 2.702-1.21.225-3.543.968-3.266 1.936.278.969 2.298.568 3.166.404 5.134-.974 8.768-1.577 13.509-3.055 1.23-.383 4.491-1.472 4.972-.575.481.897-1.972 2.201-3.106 2.679-4.731 1.997-8.272 2.89-13.129 4.091-.733.181-3.408.701-3.092 1.921.316 1.219 8.033-.78 9.795-1.167 1.762-.387 5.074-1.352 9.581-3.007.951-.35 3.547-1.265 3.934-.299.386.967-2.019 2.185-3.257 2.759-4.675 2.167-9.585 3.54-14.482 4.934-.74.21-2.187.918-2.056 1.759.131.841 1.585.687 9.834-1.235 3.201-.745 9.666-3.159 10.426-2.151.76 1.008-.69 1.946-2.24 2.594-1.55.649-8.345 3.088-15.672 5.086-7.327 1.999-14.144 3.208-16.126 3.511-1.981.302-2.81-.022-3.049-.922-.238-.9.397-1.758 2.505-2.297 2.109-.538 4.057-1.123 3.765-2.14-.292-1.017-2.975-.274-4.316.127-1.341.4-2.592.068-2.803-1.179-.21-1.247 1.313-2.206 2.659-2.8 1.346-.594 3.359-.898 3.284-1.9-.076-1.002-2.078-.652-2.881-.695-.735-.039-2.903.264-3.118-.864-.214-1.127.746-1.627 2.708-2.334 1.281-.462 2.834-1.016 3.132-1.712.216-.502-.301-1.02-.838-.939-1.486.226-2.619-.439-2.563-2.57-4.199 2.621-4.815 6.213-4.715 8.118.239 4.573 1.204 8.376 2.012 12.908.245 1.378 1.062 2.67 1.193 4.043.07.737-.581 1.785-1.217 2.307-2.353 1.931-5.039 3.488-7.198 5.603-1.478 1.449-2.349 3.556-3.38 5.431-.841 1.528.063 2.463 1.456 2.41 1.971-.076 3.961-.454 5.874-.965 1.341-.357 2.561-1.164 3.845-1.748 1.779-.809 2.605-.418 2.597 1.499-.036 7.99 4.255 13.643 9.811 18.574 2.779 2.465 2.877 3.073.06 6.063-1.529 1.622-1.529 1.622-.467 3.122l1.474-1.959 2.12 3.667c-.307.209-.797.536-1.28.874-.432.302-.855.616-1.282.924.439.254.865.536 1.323.752.261.124.641.053.848.22.633.514 1.209 1.1 1.808 1.657-.673.315-1.325.687-2.022.932-1.173.411-2.374.741-3.564 1.105l.169.875c.672.033 1.346.037 2.014.105 1.175.12 2.431.065 3.487.497.679.277 1.06 1.296 1.575 1.982-.682.275-1.351.597-2.052.81-.537.163-1.116.187-2.123.341 3.609 1.914 6.786 3.667 10.028 5.286 1.388.694 2.877 1.398 4.384 1.588 2.134.269 4.328.068 6.496.068l.014-.822c-2.87-.601-5.857-.883-8.577-1.894-2.537-.943-5.271-2.025-6.687-4.73 3.829.018 6.751 3.407 10.614 2.759l.177-.579c-1.352-.625-2.693-1.274-4.058-1.869-2.351-1.025-4.765-1.92-7.049-3.077-.721-.365-1.111-1.394-1.954-2.523 3.201.104 4.834 3.281 8.177 1.909-2.407-1.339-4.446-2.407-6.412-3.597-.876-.531-1.755-1.2-2.346-2.017-.348-.48-.133-1.374-.204-2.695 3.187 2.752 5.962 4.837 9.638 4.93.545.014 1.098-.271 1.648-.418-.472-.409-.935-1.164-1.415-1.175-4.963-.117-7.84-3.831-11.231-6.599-.42-.342-.141-1.554-.205-2.709 2.323 1.8 4.086 3.482 6.125 4.686 5.738 3.387 12.191 4.039 18.654 4.526 2.906.219 3.158.623 2.314 3.463-1.21 4.072-2.282 8.188-3.586 12.229-.842 2.605-1.317 2.691-3.911 1.704-.455-.173-.977-.166-1.734-.283 3.738 2.751 6.077 3.81 8.827 1.39.174-.292.364-.468.375-.655.127-2.018.369-3.399.544-5.412.039-.452.646-4.369.9-4.376.504-.013 1.42 3.181 1.62 3.65.91 2.14 1.133 3.345 2.199 5.263 1.48 0 1.135-.012 1.436-.037a13.974 13.974 0 0 0 1.819-.292c3.146-.789 3.123-.616 2.331-3.636-.196-.747.16-1.631.198-2.455.035-.77.147-1.591-.057-2.308-.563-1.983-1.288-3.92-1.907-5.889-.074-.235.11-.552.15-.723 2.735.23 5.349.579 7.97.642 4.774.115 5.748-1.594 5.132-6.135-.314-2.32-.08-5.023-2.19-6.888-.255-.226-.236-1.079-.029-1.473 1.094-2.082.726-3.868-.845-5.508-.142-.148-.206-.394-.25-.606-.027-.13.052-.283.111-.554.299-.051.645-.096.984-.171.89-.197 2.432-.238 2.536-.646.243-.952-.11-2.112-.411-3.132-.181-.616-.949-1.096-1.027-1.695-.083-.627.153-1.706.58-1.92 1.603-.806 1.569-1.888.787-3.133a337.953 337.953 0 0 0-5.818-8.992c-.997-1.482-1.439-2.761.269-4.053.356-.269.703-1.144.536-1.426-1.279-2.151-2.686-4.223-4.324-6.734 2.55-1.451 5.295-2.839 7.841-4.532 1.315-.875 2.485-2.153 3.349-3.493zM47.774 9.928c-.729.307-1.399.413-1.628-.199-.3-.8 1.246-1.637 1.884-1.851.638-.214 1.189-.174 1.25.542.061.716-.777 1.202-1.506 1.508zm9.492 7.388c.758.724-2.115 2.308-3.217 2.743-1.102.434-2.329.434-2.667.069-.337-.365.37-.932 1.063-1.445.693-.514 4.063-2.091 4.821-1.367zm-6.338-4.248c.225-.645 1.797-1.746 2.542-1.353.744.393.357 1.407-.187 1.814-.544.407-1.438.699-1.918.636-.479-.063-.661-.453-.437-1.097zm-.911 12.051c.213-.069 1.05.923.986 1.021-.432.664-.965 1.316-1.615 1.74-.174.113-.866-.585-1.846-1.288 1.138-.715 1.76-1.241 2.475-1.473zM11.176 48.272l-.269-.741c1.176-2.666 7.565-4.67 10.738-2.956l-10.469 3.697zm7.601 12.623c-.697-1.576-1.449-3.132-2.046-4.746-.121-.327.296-.91.569-1.3.079-.112.582-.057.789.079 1.233.806 1.971 4.125.688 5.967zm4.759.833c-.78-.742-1.844-1.355-2.253-2.266-.354-.79.034-1.919.095-2.898l.729-.014a6117.36 6117.36 0 0 1 2.2 4.444l-.771.734zm14.745 15.957c-3.305.918-8.751-3.097-9.13-5.693l2.458-.707c-.151-1.404-.588-2.477-.246-2.886.852-1.017 4.841.631 5.335 2.157l-1.791 1.256c2.014 2.023 5.485 1.953 6.555 5.637l-4.733-1.658-.804 1.247 2.356.647zm25.371 14.396l-2.129 1.682c2.519 3.344 2.404 3.937-.955 4.611-.177-.607-.342-1.239-.545-1.857-1.017-3.105-1.88-6.275-3.114-9.29-1.268-3.097-.694-4.306 2.691-4.259.69.01 1.771.776 1.96 1.41.322 1.078-.48 1.471-1.625 1.387-.443-.032-.936.643-1.406.996.554.187 1.101.402 1.664.554.657.179 1.328.303 1.679.381l-1.54 3.011 3.32 1.374zm9.102-13.691c-2.631-.598-2.895-1.045-1.93-3.262 2.302.649 2.658 1.25 1.93 3.262zm-2.945-14.546l-1.22-.825-6.636 3.967-.66-.701c.354-.661.549-1.548 1.094-1.941 1.751-1.264 3.652-2.315 5.454-3.51.897-.595 1.746-1.813 2.761-.395.893 1.248.787 2.517-.793 3.405zm-.981-18.735c2.154 2.824 4.269 5.708 6.069 8.766 1.022 1.736-.106 2.834-2.152 2.653-.788-.07-1.609.445-2.432.533-.813.087-1.648-.028-2.473-.055.192-.669.322-1.365.594-1.999.275-.643.69-1.224 1.044-1.833-.824-.225-1.535-.15-1.725.207-.675 1.274-1.492 2.6-1.675 3.984-.47 3.556-2.651 6.3-6.144 6.573-1.179.092-2.445-.964-3.666-1.493-.887 2.577.703 5.421 3.877 5.781 2.9.33 5.874-.028 8.816-.013.505.002 1.009.35 1.514.539-.285.46-.471 1.058-.874 1.354-1.003.734-2.106 1.33-3.314 2.071.413.623.79 1.075 1.038 1.589.624 1.29 1.267 2.582 1.732 3.933.13.38-.328.965-.517 1.456-.349-.394-.747-.756-1.038-1.191-.655-.978-1.258-1.993-1.882-2.993l-.782.443 1.241 3.974-.758.389-3.146-3.868c-1.167 1.063-2.106 1.988-3.122 2.816-.535.435-1.288 1.09-1.802.98-3.691-.786-7.372-1.651-10.99-2.721-.769-.227-1.263-1.402-1.884-2.14l.362-.661c2.707 1.106 5.417 2.05 8.178.856-2.282-.833-4.548-1.61-6.869-1.864-2.371-.259-4.6-.431-6.096-2.879 2.549-1.359 5.396 1.22 8.172-1.146-1.341-.225-2.185-.324-3.008-.513-1.927-.443-3.87-.846-5.746-1.454-.477-.154-.727-1.017-1.081-1.554.59-.283 1.194-.83 1.768-.799 1.552.082 3.085.491 4.638.61.927.071 1.876-.16 2.816-.255l.01-.731c-2.183-.563-4.347-1.219-6.554-1.661-2-.401-3.735-.363-4.35 2.373-.458 2.037-2.128 2.544-3.532 1.403-2.228-1.813-4.451-3.647-6.542-5.618-3.344-3.152-3.321-8.266-.802-10.582 1.44-1.323 3.192-1.591 4.509-.763 1.623 1.021 3.368 2.585 4.006 4.311 1.568 4.242 4.885 5.343 8.666 5.855 1.289.174 2.65-.197 3.978-.319l.002-.814c-.811-.127-1.633-.205-2.431-.39-1.353-.313-2.744-.567-4.009-1.106-.515-.22-1.085-1.176-1.002-1.695.072-.455 1.004-.802 1.591-1.134.577-.325 1.197-.572 1.797-.854-.553-.354-1.066-.815-1.666-1.04-1.495-.559-2.136-2.138-.964-2.811 1.786-1.027.965-1.67.081-2.692-.895-1.035-.73-1.938.846-2.118.364-.042.727-.079.816-.088.572-1.392.773-3.028 1.393-3.21 5.666-1.659 11.057-4.632 17.211-4.104 1.048.09 2.052.7 3.077 1.069-1.006.335-2.004.932-3.017.959-3.815.102-7.446 2.819-8.322 6.58 2.839-1.373 4.435-4.674 8.545-4.949l-6.852 8.218c1.005.217 1.626.309 2.222.49.668.202 1.311.483 1.977.735l-.824-2.981c5.741 1.434 6.19 1.991 5.084 5.953 1.834.316 1.862.323 2.203-1.189.429-1.901.689-3.849 1.241-5.711.522-1.764 2.124-2.518 2.929-1.462zm-34.7 1.658c.582-.653 1.232-1.301 1.991-1.704.239-.127.868.49 1.318.766l-2.182 2.493c-.573-.779-1.195-1.48-1.127-1.555zm30.182-2.789c.587 2.178-5.066 3.227-5.578 2.007-.394-1.039 4.965-3.217 5.578-2.007zm.619-12.632c-5.012 1.963-8.002 2.747-15.655 3.2-7.653.452-18.912 1.416-28.436 3.487-.715.155-1.311.867-1.962 1.32 3.073.136 5.723-.138 8.38-.306.378-.024.789.468 1.184.722-.355.305-.67.794-1.073.885-2.438.549-4.88 1.276-7.353 1.432-3.775.237-7.199 1.395-10.579 2.959-.7.324-1.673.047-2.521.047l-.125-.672c.884-.61 1.709-1.352 2.669-1.794 1.056-.486 2.236-.696 3.038-.931 1.376-3.912 5.029-4.029 7.747-5.195 2.825-1.212 5.991-1.617 9.551-2.511l-3.006-.877-.142-.781c3.227-1.075 6.433-2.222 9.688-3.201 2.199-.661 4.457-1.149 6.715-1.563.492-.09 1.1.463 1.654.72-.315.546-.524 1.217-.974 1.601-.42.358-1.083.483-1.66.584-3.492.61-6.99 1.177-10.483 1.777-.398.069-.777.25-1.165.379.872.638 1.767.921 2.632.847 4.367-.378 9.01-.82 13.374-.973 12.285-.43 17.263-2.325 24.128-5.998 3.862-2.067 3.403-2.885 3.073-3.355-.405-.578-4.562 1.272-4.909.811-.346-.46 3.705-3.076 5.254-3.238 1.55-.161 1.97-.113 2.594.582.624.696.596 2.974-2.186 4.974-3.189 2.293-4.878 3.277-9.452 5.068z"/></svg>