<svg version="1" xmlns="http://www.w3.org/2000/svg" width="21.33" height="21.33" viewBox="0 0 16.000000 16.000000"><path d="M2.16.034C1.168.162.343.912.074 1.922c-.056.21-.06.456-.06 6.078s.004 5.869.06 6.078a2.551 2.551 0 0 0 1.847 1.847c.21.056.456.06 6.078.06s5.869-.004 6.078-.06a2.551 2.551 0 0 0 1.847-1.847c.056-.21.06-.456.06-6.078s-.004-5.869-.06-6.078c-.244-.916-.906-1.585-1.831-1.847-.194-.056-.456-.06-5.969-.063C4.953.01 2.269.02 2.159.034zm6.7 3.278c.421.05.653.116 1 .282.73.356 1.137.91 1.234 1.697.081.668-.138 1.268-.613 1.659-.4.331-.969.59-1.55.716-.253.053-.306.075-.306.121 0 .047.025.057.15.057.225 0 .74.084 1.04.172.92.262 1.632.762 1.926 1.35.19.378.237.64.222 1.178-.013.403-.025.468-.125.762-.229.663-.697 1.25-1.204 1.503-.775.388-1.75.438-4.025.204a5.982 5.982 0 0 0-1.437.018 8.077 8.077 0 0 1-.65.038l-.397.01v-.538l.247-.016c.41-.025.562-.172.687-.666.122-.49.132-.803.122-3.859-.012-3.125-.006-2.99-.168-3.538-.063-.209-.2-.39-.344-.45a1.297 1.297 0 0 0-.322-.062l-.222-.022v-.562l.369.018c1.144.066 1.856.063 2.584-.006 1.144-.106 1.353-.112 1.781-.066z"/><path d="M7.219 5.737v1.835l.26-.019a1.83 1.83 0 0 0 1.209-.575c.309-.328.421-.656.412-1.212-.006-.61-.172-1.057-.522-1.407-.315-.315-.656-.453-1.115-.453h-.244v1.831zM7.21 8.766a68.6 68.6 0 0 0-.022 1.862c0 1.188.003 1.256.065 1.45.156.475.516.65 1.103.535.55-.11 1.053-.485 1.278-.96.185-.39.225-.597.225-1.2 0-.472-.009-.556-.071-.765-.191-.607-.51-.963-1.116-1.254a2.767 2.767 0 0 0-1.097-.268l-.347-.02-.019.62z"/></svg>