<svg xmlns="http://www.w3.org/2000/svg" viewBox="0 0 34 30.01"><defs><style>.cls-1{fill:#eee3b0}</style></defs><title>icn-dessert</title><g id="Слой_2" data-name="Слой 2"><g id="Слой_1-2" data-name="Слой 1"><path id="Shape" class="cls-1" d="M32.94 30H0V15L22.31.26a1.23 1.23 0 0 1 1.8.34L34 15v13.94A1.07 1.07 0 0 1 32.94 30zM23 2L3 15h29zm9 15.27l-.31.31a1.44 1.44 0 0 1-2.13-.1l-.45-.58-.39.55a1.32 1.32 0 0 1-2.13 0l-.45-.58-.39.58a1.41 1.41 0 0 1-2.13.08l-.53-.53v-.14l-.42.6a1.43 1.43 0 0 1-2.13.06l-.47-.52v-.14l-.42.56a1.33 1.33 0 0 1-2.13 0l-.45-.58-.39.55a1.32 1.32 0 0 1-2.13 0L14 16.9l-.39.58a1.48 1.48 0 0 1-2.13.08L11 17v-.14l-.42.56a1.33 1.33 0 0 1-2.13 0L8 16.84l-.39.55a1.32 1.32 0 0 1-2.13 0L5 16.9l-.39.62a1.56 1.56 0 0 1-2.13.11L2 17.18V20h30v-2.73zM32 22H2v2h30zm0 4H2v2h30zm-7-16a3 3 0 1 1-3-3 3 3 0 0 1 3 3zm-3 1a1 1 0 1 0-1-1 1 1 0 0 0 1 1z"/></g></g></svg>